<?xml version="1.0" encoding="UTF-8"?>
<svg version="1.1" xmlns="http://www.w3.org/2000/svg" width="32" height="32">
<path d="M0 0 C10.56 0 21.12 0 32 0 C32 10.56 32 21.12 32 32 C21.44 32 10.88 32 0 32 C0 21.44 0 10.88 0 0 Z " fill="#E67F2E" transform="translate(0,0)"/>
<path d="M0 0 C0.93134766 0.00902344 1.86269531 0.01804688 2.82226562 0.02734375 C5.1109436 0.05081737 7.39908672 0.08365271 9.6875 0.125 C9.86371118 3.45765038 9.96896971 6.78908619 10.0625 10.125 C10.13791016 11.52685547 10.13791016 11.52685547 10.21484375 12.95703125 C10.34679516 19.24671502 9.28730176 22.78383103 5.27978516 27.6640625 C3.6875 29.125 3.6875 29.125 0.6875 30.125 C0.0275 29.465 -0.6325 28.805 -1.3125 28.125 C0.0075 27.465 1.3275 26.805 2.6875 26.125 C0.7075 25.795 -1.2725 25.465 -3.3125 25.125 C-2.4875 24.25875 -1.6625 23.3925 -0.8125 22.5 C1.11830098 20.15545595 1.68425583 19.14089641 2.3125 16.0625 C1.45506415 12.0325515 -0.02389686 10.55570667 -3.3125 8.125 C-6.26909873 7.29150049 -6.26909873 7.29150049 -9.3125 8.125 C-11.57285066 9.61817014 -13.3351329 11.24179324 -15.3125 13.125 C-16.3025 12.135 -17.2925 11.145 -18.3125 10.125 C-19.3025 10.62 -19.3025 10.62 -20.3125 11.125 C-19.83249859 6.80498734 -18.69746591 4.85177809 -15.3125 2.125 C-10.43907724 -0.57397973 -5.40492252 -0.09931306 0 0 Z " fill="#A63F7B" transform="translate(22.3125,-0.12499999999999999)"/>
<path d="M0 0 C2.69990662 1.79993774 4.5418865 3.083773 6 6 C6.43023798 9.87214182 6.31669086 11.52496371 4.125 14.8125 C1.67638784 17.33313016 0.88849955 17.96664791 -2.6015625 18.09765625 C-4.09816406 18.08025391 -4.09816406 18.08025391 -5.625 18.0625 C-6.62789062 18.05347656 -7.63078125 18.04445313 -8.6640625 18.03515625 C-9.43492188 18.02355469 -10.20578125 18.01195313 -11 18 C-10.67 16.35 -10.34 14.7 -10 13 C-5.545 12.505 -5.545 12.505 -1 12 C-0.67 10.68 -0.34 9.36 0 8 C-1.49743119 6.50256881 -2.98824239 6.66797307 -5.0625 6.4375 C-6.361875 6.293125 -7.66125 6.14875 -9 6 C-9 7.65 -9 9.3 -9 11 C-9.99 11.495 -9.99 11.495 -11 12 C-11.23816991 9.1419611 -11.42242213 6.80188855 -11 4 C-7.72794548 0.1505241 -4.96702569 -0.82783761 0 0 Z " fill="#F7F3F3" transform="translate(19,7)"/>
<path d="M0 0 C3.96 0 7.92 0 12 0 C9.83929536 2.16070464 7.61161063 3.43303362 5 5 C4.34 5.66 3.68 6.32 3 7 C3 7.99 3 8.98 3 10 C3.66 9.67 4.32 9.34 5 9 C7.52775351 12.79163027 7.22443035 15.80874031 7.125 20.1875 C7.11597656 20.93708984 7.10695313 21.68667969 7.09765625 22.45898438 C7.07412578 24.30612654 7.03825561 26.15310412 7 28 C6.01 28 5.02 28 4 28 C-1.36185982 19.11941968 -0.36723241 10.02748487 0 0 Z " fill="#C86D5F" transform="translate(0,0)"/>
<path d="M0 0 C0.33 0 0.66 0 1 0 C1.33 1.65 1.66 3.3 2 5 C2.33 3.35 2.66 1.7 3 0 C9.0546875 -0.1953125 9.0546875 -0.1953125 11 0 C11.66 0.66 12.32 1.32 13 2 C12.46428571 5.53571429 12.46428571 5.53571429 11 7 C9.48071962 7.07179964 7.95832518 7.08392007 6.4375 7.0625 C5.61121094 7.05347656 4.78492188 7.04445313 3.93359375 7.03515625 C3.29550781 7.02355469 2.65742188 7.01195312 2 7 C1.67 8.65 1.34 10.3 1 12 C1.99 12.33 2.98 12.66 4 13 C3.34 14.32 2.68 15.64 2 17 C2.66 17.66 3.32 18.32 4 19 C0.37 19 -3.26 19 -7 19 C-7 14.71 -7 10.42 -7 6 C-5.00902154 8.98646769 -4.05875074 11.59687262 -3 15 C-2.01 15 -1.02 15 0 15 C0 10.05 0 5.1 0 0 Z " fill="#FBECDB" transform="translate(7,13)"/>
<path d="M0 0 C4 0 4 0 7 2 C6.46744565 6.52671196 4.78440128 9.4200555 2 13 C-0.25 14.375 -0.25 14.375 -2 15 C-2.66 14.34 -3.32 13.68 -4 13 C-2.68 12.34 -1.36 11.68 0 11 C-2.97 10.505 -2.97 10.505 -6 10 C-5.195625 9.0925 -4.39125 8.185 -3.5625 7.25 C-1.58857329 4.89690092 -0.36122533 3.13061954 0 0 Z " fill="#D57B4D" transform="translate(25,15)"/>
<path d="M0 0 C2.87951579 1.39583308 5.43659042 3.09107797 8 5 C7.67 5.66 7.34 6.32 7 7 C6.01 6.34 5.02 5.68 4 5 C1.23344676 4.85754103 -1.42653306 4.81230555 -4.1875 4.875 C-5.31188477 4.88853516 -5.31188477 4.88853516 -6.45898438 4.90234375 C-8.30612654 4.92587422 -10.15310412 4.96174439 -12 5 C-9.49157812 -0.55436273 -5.84889017 -0.95783219 0 0 Z " fill="#973484" transform="translate(20,0)"/>
<path d="M0 0 C0.33 0 0.66 0 1 0 C1 3.63 1 7.26 1 11 C-2.96 11 -6.92 11 -11 11 C-9.68 10.01 -8.36 9.02 -7 8 C-4.2964249 5.42516657 -2.07418127 3.11127191 0 0 Z " fill="#F8E9DD" transform="translate(31,21)"/>
<path d="M0 0 C3.96 0 7.92 0 12 0 C12 3.96 12 7.92 12 12 C11.34 11.01 10.68 10.02 10 9 C7.13422961 4.9060423 4.58920264 2.98170114 0 1 C0 0.67 0 0.34 0 0 Z " fill="#F1E5F0" transform="translate(20,0)"/>
<path d="M0 0 C3.96 0 7.92 0 12 0 C10 2 10 2 7.625 3.25 C4.44847495 5.36768337 2.99866387 7.78786163 1 11 C0.67 11 0.34 11 0 11 C0 7.37 0 3.74 0 0 Z " fill="#F7EAF3" transform="translate(0,0)"/>
<path d="M0 0 C2 3 2 3 3.8125 6.5625 C5.33726396 9.28981365 5.85829788 9.92592844 8.75 11.4375 C9.4925 11.623125 10.235 11.80875 11 12 C11 12.33 11 12.66 11 13 C7.37 13 3.74 13 0 13 C0 8.71 0 4.42 0 0 Z " fill="#F9F4EC" transform="translate(0,19)"/>
<path d="M0 0 C0.66 0.33 1.32 0.66 2 1 C2 1.99 2 2.98 2 4 C3.32 4.66 4.64 5.32 6 6 C3.03 8.475 3.03 8.475 0 11 C-0.99 10.01 -1.98 9.02 -3 8 C-3.99 8.495 -3.99 8.495 -5 9 C-4.5206753 4.68607774 -3.2542015 2.83430453 0 0 Z " fill="#AF5175" transform="translate(7,2)"/>
<path d="M0 0 C0.625 1.875 0.625 1.875 1 4 C0.34 4.66 -0.32 5.32 -1 6 C-3.625 5.625 -3.625 5.625 -6 5 C-6.33 3.35 -6.66 1.7 -7 0 C-4.3333581 -1.33332095 -2.83319697 -0.67102033 0 0 Z " fill="#D67C53" transform="translate(19,14)"/>
<path d="M0 0 C4 0 4 0 7 2 C6.625 4.4375 6.625 4.4375 6 7 C5.01 7.495 5.01 7.495 4 8 C4 7.34 4 6.68 4 6 C3.34 6 2.68 6 2 6 C1.67 6.99 1.34 7.98 1 9 C-0.4783226 6.04335481 -0.06032783 3.25770263 0 0 Z " fill="#C75C4F" transform="translate(25,15)"/>
<path d="M0 0 C1.37478516 0.01740234 1.37478516 0.01740234 2.77734375 0.03515625 C3.69644531 0.04417969 4.61554687 0.05320312 5.5625 0.0625 C6.27277344 0.07410156 6.98304687 0.08570312 7.71484375 0.09765625 C7.71484375 0.42765625 7.71484375 0.75765625 7.71484375 1.09765625 C5.40484375 1.42765625 3.09484375 1.75765625 0.71484375 2.09765625 C0.38484375 3.08765625 0.05484375 4.07765625 -0.28515625 5.09765625 C2.02484375 5.42765625 4.33484375 5.75765625 6.71484375 6.09765625 C6.71484375 6.42765625 6.71484375 6.75765625 6.71484375 7.09765625 C5.27776285 7.15188572 3.84008913 7.19055348 2.40234375 7.22265625 C1.60183594 7.24585938 0.80132812 7.2690625 -0.0234375 7.29296875 C-2.28515625 7.09765625 -2.28515625 7.09765625 -5.28515625 5.09765625 C-2.87806166 0.12299409 -2.87806166 0.12299409 0 0 Z " fill="#E58E46" transform="translate(13.28515625,24.90234375)"/>
<path d="M0 0 C3 2 3 2 4 5 C3.42307692 11.57692308 3.42307692 11.57692308 1 14 C-1.625 14.125 -1.625 14.125 -4 14 C-3.360625 13.7525 -2.72125 13.505 -2.0625 13.25 C0.18741541 12.18437567 0.18741541 12.18437567 0.75 9.875 C0.8325 9.25625 0.915 8.6375 1 8 C-1.475 7.01 -1.475 7.01 -4 6 C-4 5.34 -4 4.68 -4 4 C-2.35 4 -0.7 4 1 4 C0.67 2.68 0.34 1.36 0 0 Z " fill="#F3E6E4" transform="translate(18,7)"/>
<path d="M0 0 C3.465 1.485 3.465 1.485 7 3 C7 4.65 7 6.3 7 8 C3.89448334 8 2.64738916 7.4606285 0 6 C0 4.02 0 2.04 0 0 Z " fill="#B54C6A" transform="translate(25,9)"/>
<path d="M0 0 C0.33 0 0.66 0 1 0 C1 3.63 1 7.26 1 11 C-2 10 -2 10 -3.3125 7.6875 C-4 5 -4 5 -3.125 2.6875 C-2.75375 2.130625 -2.3825 1.57375 -2 1 C-1.67 1.33 -1.34 1.66 -1 2 C-0.67 1.34 -0.34 0.68 0 0 Z " fill="#DE743E" transform="translate(5,16)"/>
<path d="M0 0 C1.98 0 3.96 0 6 0 C6 3.96 6 7.92 6 12 C3.61067235 8.41600853 3 6.26804999 3 2 C2.01 1.34 1.02 0.68 0 0 Z " fill="#FAF5F7" transform="translate(26,0)"/>
<path d="M0 0 C1.65 0 3.3 0 5 0 C5 1.32 5 2.64 5 4 C3.02 4.33 1.04 4.66 -1 5 C-0.67 3.35 -0.34 1.7 0 0 Z " fill="#F8FCFA" transform="translate(9,20)"/>
<path d="M0 0 C1.98 0.495 1.98 0.495 4 1 C3.34 1 2.68 1 2 1 C2.66 2.98 3.32 4.96 4 7 C2.35 7 0.7 7 -1 7 C-0.67 4.69 -0.34 2.38 0 0 Z " fill="#F7EFE7" transform="translate(10,13)"/>
<path d="M0 0 C-2 2 -2 2 -3.9453125 2.1953125 C-5.96354167 2.13020833 -7.98177083 2.06510417 -10 2 C-10 1.34 -10 0.68 -10 0 C-6.30581799 -1.231394 -3.7943739 -0.64432764 0 0 Z " fill="#A13986" transform="translate(18,3)"/>
<path d="M0 0 C0.66 0.33 1.32 0.66 2 1 C2 2.98 2 4.96 2 7 C0.35 6.67 -1.3 6.34 -3 6 C-3 5.34 -3 4.68 -3 4 C-2.01 3.34 -1.02 2.68 0 2 C0 1.34 0 0.68 0 0 Z " fill="#FBFDFB" transform="translate(30,25)"/>
<path d="M0 0 C4 0 4 0 7 2 C6.67 3.32 6.34 4.64 6 6 C5.34 5.67 4.68 5.34 4 5 C4 4.34 4 3.68 4 3 C2.68 3.33 1.36 3.66 0 4 C0 2.68 0 1.36 0 0 Z " fill="#C96A6F" transform="translate(25,15)"/>
<path d="M0 0 C2.475 0.495 2.475 0.495 5 1 C5.33 2.32 5.66 3.64 6 5 C5.01 5.33 4.02 5.66 3 6 C2.67 4.68 2.34 3.36 2 2 C1.34 2 0.68 2 0 2 C0 1.34 0 0.68 0 0 Z " fill="#AC4A85" transform="translate(25,6)"/>
<path d="M0 0 C1.32 0.33 2.64 0.66 4 1 C4 1.66 4 2.32 4 3 C3.01 3.495 3.01 3.495 2 4 C1.59270772 6.32156597 1.25561323 8.6568787 1 11 C0.67 11 0.34 11 0 11 C0 7.37 0 3.74 0 0 Z " fill="#F8FAFA" transform="translate(0,0)"/>
</svg>
